# xmcd
#
# Track frame offsets:
# 150
# 12342
# 27183
# 39141
# 57675
# 85022
# 104476
# 123658
# 142476
# 163501
#
# Disc length: 2252 seconds
#
#
# Revision: 0
# Processed by: cddbd v1.5.2PL0 Copyright (c) Steve Scherf et al.
# Submitted via: FreeRIP 2.951 
#
DISCID=8708ca0a
DTITLE=The Grand - The Grand
DYEAR=2007
DGENRE=Alt. Rock
TTITLE0=Keep it coming
TTITLE1=Freeloader
TTITLE2=Go wave it in the street
TTITLE3=Remedy
TTITLE4=Ball and chain
TTITLE5=Turn me on
TTITLE6=Borderline
TTITLE7=Lust to win
TTITLE8=Downhill
TTITLE9=Tourniquet
EXTD=
EXTT0=
EXTT1=
EXTT2=
EXTT3=
EXTT4=
EXTT5=
EXTT6=
EXTT7=
EXTT8=
EXTT9=
PLAYORDER=
